<svg xmlns="http://www.w3.org/2000/svg" viewBox="0 0 820 470" width="820" height="470" font-family="-apple-system, Segoe UI, Roboto, Helvetica, Arial, sans-serif">
<rect width="820" height="470" fill="white"/>
<text x="32" y="42" font-size="21" font-weight="700" fill="#18181b">Which powertrain fits which market</text>
<text x="32" y="66" font-size="13.5" fill="#71717a">Fit driven by charging infrastructure and climate at destination — not by which technology is &#8220;best&#8221;.</text>
<text x="290" y="106" font-size="14" font-weight="700" fill="#18181b" text-anchor="middle">BEV</text>
<text x="399" y="106" font-size="14" font-weight="700" fill="#18181b" text-anchor="middle">PHEV</text>
<text x="508" y="106" font-size="14" font-weight="700" fill="#18181b" text-anchor="middle">EREV</text>
<text x="617" y="106" font-size="14" font-weight="700" fill="#18181b" text-anchor="middle">HEV</text>
<text x="726" y="106" font-size="14" font-weight="700" fill="#18181b" text-anchor="middle">ICE</text>
<rect x="24" y="128" width="772" height="60" rx="8" fill="#fafafa"/>
<text x="220" y="163" font-size="13.5" fill="#52525b" text-anchor="end">Russia &amp; CIS (cold)</text>
<circle cx="290" cy="158" r="4" fill="#d4d4d8"/>
<circle cx="399" cy="158" r="10" fill="none" stroke="#71717a" stroke-width="2.5"/>
<circle cx="508" cy="158" r="13" fill="#e53e2f"/>
<path d="M502 158 l4 4 l7 -8" stroke="white" stroke-width="2.4" fill="none" stroke-linecap="round" stroke-linejoin="round"/>
<circle cx="617" cy="158" r="10" fill="none" stroke="#71717a" stroke-width="2.5"/>
<circle cx="726" cy="158" r="13" fill="#e53e2f"/>
<path d="M720 158 l4 4 l7 -8" stroke="white" stroke-width="2.4" fill="none" stroke-linecap="round" stroke-linejoin="round"/>
<text x="220" y="223" font-size="13.5" fill="#52525b" text-anchor="end">Middle East &amp; Gulf</text>
<circle cx="290" cy="218" r="10" fill="none" stroke="#71717a" stroke-width="2.5"/>
<circle cx="399" cy="218" r="13" fill="#e53e2f"/>
<path d="M394 218 l4 4 l7 -8" stroke="white" stroke-width="2.4" fill="none" stroke-linecap="round" stroke-linejoin="round"/>
<circle cx="508" cy="218" r="13" fill="#e53e2f"/>
<path d="M502 218 l4 4 l7 -8" stroke="white" stroke-width="2.4" fill="none" stroke-linecap="round" stroke-linejoin="round"/>
<circle cx="617" cy="218" r="10" fill="none" stroke="#71717a" stroke-width="2.5"/>
<circle cx="726" cy="218" r="10" fill="none" stroke="#71717a" stroke-width="2.5"/>
<rect x="24" y="248" width="772" height="60" rx="8" fill="#fafafa"/>
<text x="220" y="283" font-size="13.5" fill="#52525b" text-anchor="end">Africa (most markets)</text>
<circle cx="290" cy="278" r="4" fill="#d4d4d8"/>
<circle cx="399" cy="278" r="4" fill="#d4d4d8"/>
<circle cx="508" cy="278" r="10" fill="none" stroke="#71717a" stroke-width="2.5"/>
<circle cx="617" cy="278" r="13" fill="#e53e2f"/>
<path d="M611 278 l4 4 l7 -8" stroke="white" stroke-width="2.4" fill="none" stroke-linecap="round" stroke-linejoin="round"/>
<circle cx="726" cy="278" r="13" fill="#e53e2f"/>
<path d="M720 278 l4 4 l7 -8" stroke="white" stroke-width="2.4" fill="none" stroke-linecap="round" stroke-linejoin="round"/>
<text x="220" y="343" font-size="13.5" fill="#52525b" text-anchor="end">Latin America</text>
<circle cx="290" cy="338" r="10" fill="none" stroke="#71717a" stroke-width="2.5"/>
<circle cx="399" cy="338" r="13" fill="#e53e2f"/>
<path d="M394 338 l4 4 l7 -8" stroke="white" stroke-width="2.4" fill="none" stroke-linecap="round" stroke-linejoin="round"/>
<circle cx="508" cy="338" r="10" fill="none" stroke="#71717a" stroke-width="2.5"/>
<circle cx="617" cy="338" r="10" fill="none" stroke="#71717a" stroke-width="2.5"/>
<circle cx="726" cy="338" r="13" fill="#e53e2f"/>
<path d="M720 338 l4 4 l7 -8" stroke="white" stroke-width="2.4" fill="none" stroke-linecap="round" stroke-linejoin="round"/>
<circle cx="44" cy="406" r="10" fill="#e53e2f"/><path d="M39.5 406 l3 3 l5.5 -6" stroke="white" stroke-width="2" fill="none" stroke-linecap="round" stroke-linejoin="round"/>
<text x="62" y="410" font-size="12.5" fill="#52525b">Strong fit</text>
<circle cx="168" cy="406" r="8" fill="none" stroke="#71717a" stroke-width="2.2"/>
<text x="186" y="410" font-size="12.5" fill="#52525b">Situational — depends on city / charging access</text>
<circle cx="520" cy="406" r="4" fill="#d4d4d8"/>
<text x="534" y="410" font-size="12.5" fill="#52525b">Weak fit today</text>
<text x="32" y="454" font-size="11.5" fill="#71717a">General guidance — match to your specific city before ordering. Source: EV Auto Pro export experience, 60+ markets.</text>
</svg>