<svg xmlns="http://www.w3.org/2000/svg" viewBox="0 0 820 520" width="820" height="520" font-family="-apple-system, Segoe UI, Roboto, Helvetica, Arial, sans-serif">
<rect width="820" height="520" fill="white"/>
<text x="32" y="42" font-size="21" font-weight="700" fill="#18181b">Chinese SUV power vs Russia&#39;s 160&#8202;hp line</text>
<text x="32" y="66" font-size="13.5" fill="#71717a">Engine power in PS (metric hp). From Dec 2025 the recycling fee&#39;s preferential rate stops at 160&#8202;hp.</text>
<line x1="373.1" y1="82" x2="373.1" y2="434" stroke="#18181b" stroke-width="2" stroke-dasharray="5 4"/>
<text x="380.1" y="78" font-size="12.5" font-weight="700" fill="#18181b">160&#8202;hp preferential line</text>
<text x="164" y="112.0" font-size="13" fill="#52525b" text-anchor="end">Geely Coolray</text>
<rect x="176" y="96" width="215.3" height="24" rx="4" fill="#e53e2f"/>
<text x="399.4" y="112.0" font-size="12.5" font-weight="700" fill="#18181b">177 PS</text>
<text x="164" y="156.0" font-size="13" fill="#52525b" text-anchor="end">Changan UNI-T</text>
<rect x="176" y="140" width="228.7" height="24" rx="4" fill="#e53e2f"/>
<text x="412.7" y="156.0" font-size="12.5" font-weight="700" fill="#18181b">188 PS</text>
<text x="164" y="200.0" font-size="13" fill="#52525b" text-anchor="end">Changan CS55 Plus</text>
<rect x="176" y="184" width="228.7" height="24" rx="4" fill="#e53e2f"/>
<text x="412.7" y="200.0" font-size="12.5" font-weight="700" fill="#18181b">188 PS</text>
<text x="164" y="244.0" font-size="13" fill="#52525b" text-anchor="end">Geely Atlas</text>
<rect x="176" y="228" width="265.2" height="24" rx="4" fill="#e53e2f"/>
<text x="449.2" y="244.0" font-size="12.5" font-weight="700" fill="#18181b">218 PS</text>
<text x="164" y="288.0" font-size="13" fill="#52525b" text-anchor="end">Deepal S05</text>
<rect x="176" y="272" width="265.2" height="24" rx="4" fill="#e53e2f"/>
<text x="449.2" y="288.0" font-size="12.5" font-weight="700" fill="#18181b">218 PS</text>
<text x="164" y="332.0" font-size="13" fill="#52525b" text-anchor="end">Deepal S07</text>
<rect x="176" y="316" width="306.6" height="24" rx="4" fill="#e53e2f"/>
<text x="490.6" y="332.0" font-size="12.5" font-weight="700" fill="#18181b">252 PS</text>
<text x="164" y="376.0" font-size="13" fill="#52525b" text-anchor="end">Jetour T2</text>
<rect x="176" y="360" width="562.1" height="24" rx="4" fill="#e53e2f"/>
<text x="746.1" y="376.0" font-size="12.5" font-weight="700" fill="#18181b">462 PS</text>
<text x="164" y="420.0" font-size="13" fill="#52525b" text-anchor="end">Deepal S09</text>
<rect x="176" y="404" width="562.1" height="24" rx="4" fill="#e53e2f"/>
<text x="746.1" y="420.0" font-size="12.5" font-weight="700" fill="#18181b">462 PS</text>
<text x="32" y="502" font-size="11.5" fill="#71717a">Every current EV Auto Pro SUV sits above the line — budget the fee per model. Source: EV Auto Pro catalog.</text>
</svg>